<?xml version="1.0" encoding="UTF-8" standalone="no"?>
<!DOCTYPE svg PUBLIC "-//W3C//DTD SVG 1.0//EN" "http://www.w3.org/TR/2001/PR-SVG-20010719/DTD/svg10.dtd">
<svg width="16cm" height="6cm" viewBox="166 137 301 107" xmlns="http://www.w3.org/2000/svg" xmlns:xlink="http://www.w3.org/1999/xlink">
  <g>
    <rect style="fill: #ffffff" x="167.98" y="141" width="49" height="38"/>
    <rect style="fill: none; fill-opacity:0; stroke-width: 2; stroke: #000000" x="167.98" y="141" width="49" height="38"/>
  </g>
  <text font-size="5.68951" style="fill: #000000;text-anchor:middle;font-family:sans-serif;font-style:normal;font-weight:normal" x="192.48" y="160">
    <tspan x="192.48" y="160">Data Sender</tspan>
  </text>
  <g>
    <rect style="fill: #ffffff" x="261.98" y="138.9" width="83" height="41"/>
    <rect style="fill: none; fill-opacity:0; stroke-width: 2; stroke: #000000" x="261.98" y="138.9" width="83" height="41"/>
  </g>
  <text font-size="5.64436" style="fill: #000000;text-anchor:start;font-family:sans-serif;font-style:normal;font-weight:normal" x="266.805" y="161.35">
    <tspan x="266.805" y="161.35">Data Collector Server App</tspan>
  </text>
  <g>
    <path style="fill: #a5a585" d="M 464.473 169.259 L 464.434,168.761 L 464.325,168.271 L 464.138,167.78 L 463.881,167.298 L 463.562,166.816 L 463.165,166.341 L 462.699,165.874 L 462.162,165.415 L 461.555,164.964 L 460.886,164.536 L 460.154,164.108 L 459.368,163.688 L 458.505,163.291 L 457.594,162.91 L 456.63,162.544 L 455.603,162.194 L 454.537,161.867 L 453.416,161.556 L 452.257,161.268 L 451.043,160.996 L 449.806,160.739 L 448.522,160.513 L 447.207,160.295 L 445.877,160.117 L 444.508,159.961 L 443.115,159.829 L 441.714,159.712 L 440.29,159.634 L 438.859,159.564 L 437.419,159.517 L 435.98,159.517 L 435.98,159.517 L 434.533,159.517 L 433.093,159.564 L 431.662,159.634 L 430.238,159.712 L 428.837,159.829 L 427.445,159.961 L 426.083,160.117 L 424.745,160.295 L 423.43,160.513 L 422.146,160.739 L 420.909,160.996 L 419.703,161.268 L 418.544,161.556 L 417.423,161.867 L 416.35,162.194 L 415.323,162.544 L 414.366,162.91 L 413.447,163.291 L 412.592,163.688 L 411.798,164.108 L 411.067,164.536 L 410.397,164.964 L 409.791,165.415 L 409.254,165.874 L 408.787,166.341 L 408.39,166.816 L 408.071,167.298 L 407.814,167.78 L 407.628,168.271 L 407.526,168.761 L 407.487,169.259 L 407.487,169.259 L 407.526,169.757 L 407.628,170.239 L 407.814,170.737 L 408.071,171.219 L 408.39,171.702 L 408.787,172.176 L 409.254,172.643 L 409.791,173.102 L 410.397,173.546 L 411.067,173.982 L 411.798,174.409 L 412.592,174.83 L 413.447,175.226 L 414.366,175.608 L 415.323,175.973 L 416.35,176.323 L 417.423,176.65 L 418.544,176.961 L 419.703,177.249 L 420.909,177.522 L 422.146,177.778 L 423.43,178.004 L 424.745,178.214 L 426.083,178.401 L 427.445,178.557 L 428.837,178.689 L 430.238,178.798 L 431.662,178.883 L 433.093,178.946 L 434.533,178.992 L 435.98,179 L 435.98,179 L 437.419,178.992 L 438.859,178.946 L 440.29,178.883 L 441.714,178.798 L 443.115,178.689 L 444.508,178.557 L 445.877,178.401 L 447.207,178.214 L 448.522,178.004 L 449.806,177.778 L 451.043,177.522 L 452.257,177.249 L 453.416,176.961 L 454.537,176.65 L 455.603,176.323 L 456.63,175.973 L 457.594,175.608 L 458.505,175.226 L 459.368,174.83 L 460.154,174.409 L 460.886,173.982 L 461.555,173.546 L 462.162,173.102 L 462.699,172.643 L 463.165,172.176 L 463.562,171.702 L 463.881,171.219 L 464.138,170.737 L 464.325,170.239 L 464.434,169.757 L 464.473,169.259z"/>
    <path style="fill: none; fill-opacity:0; stroke-width: 0.02; stroke: #494936" d="M 464.138 169.103 L 464.099,168.605 L 463.998,168.131 L 463.819,167.648 L 463.57,167.174 L 463.235,166.691 L 462.831,166.232 L 462.387,165.765 L 461.843,165.33 L 461.244,164.886 L 460.582,164.45 L 459.851,164.038 L 459.065,163.626 L 458.217,163.237 L 457.322,162.848 L 456.342,162.497 L 455.323,162.155 L 454.257,161.828 L 453.152,161.525 L 452,161.245 L 450.802,160.972 L 449.557,160.731 L 448.289,160.506 L 446.982,160.295 L 445.659,160.117 L 444.305,159.961 L 442.913,159.836 L 441.52,159.712 L 440.104,159.642 L 438.688,159.58 L 437.24,159.541 L 435.809,159.517 L 435.809,159.517 L 434.377,159.541 L 432.946,159.58 L 431.514,159.642 L 430.113,159.712 L 428.713,159.836 L 427.328,159.961 L 425.966,160.117 L 424.636,160.295 L 423.337,160.506 L 422.068,160.731 L 420.823,160.972 L 419.625,161.245 L 418.481,161.525 L 417.361,161.828 L 416.287,162.155 L 415.276,162.497 L 414.311,162.848 L 413.416,163.237 L 412.56,163.626 L 411.767,164.038 L 411.051,164.45 L 410.39,164.886 L 409.775,165.33 L 409.246,165.765 L 408.787,166.232 L 408.39,166.691 L 408.063,167.174 L 407.806,167.648 L 407.628,168.131 L 407.526,168.605 L 407.487,169.103 L 407.487,169.103 L 407.526,169.585 L 407.628,170.06 L 407.806,170.55 L 408.063,171.025 L 408.39,171.5 L 408.787,171.966 L 409.246,172.425 L 409.775,172.869 L 410.39,173.305 L 411.051,173.748 L 411.767,174.168 L 412.56,174.565 L 413.416,174.962 L 414.311,175.343 L 415.276,175.701 L 416.287,176.043 L 417.361,176.362 L 418.481,176.674 L 419.625,176.954 L 420.823,177.226 L 422.068,177.475 L 423.337,177.693 L 424.636,177.895 L 425.966,178.074 L 427.328,178.23 L 428.713,178.362 L 430.113,178.479 L 431.514,178.557 L 432.946,178.619 L 434.377,178.658 L 435.809,178.673 L 435.809,178.673 L 437.24,178.658 L 438.688,178.619 L 440.104,178.557 L 441.52,178.479 L 442.913,178.362 L 444.305,178.23 L 445.659,178.074 L 446.982,177.895 L 448.289,177.693 L 449.557,177.475 L 450.802,177.226 L 452,176.954 L 453.152,176.674 L 454.257,176.362 L 455.323,176.043 L 456.342,175.701 L 457.322,175.343 L 458.217,174.962 L 459.065,174.565 L 459.851,174.168 L 460.582,173.748 L 461.244,173.305 L 461.843,172.869 L 462.387,172.425 L 462.831,171.966 L 463.235,171.5 L 463.57,171.025 L 463.819,170.55 L 463.998,170.06 L 464.099,169.585 L 464.138,169.103"/>
    <path style="fill: #a5a585" d="M 407.487 148.912 L 407.487,169.43 L 464.138,169.43 L 464.138,148.912 L 407.487,148.912z"/>
    <path style="fill: #c9c9b6" d="M 464.473 148.741 L 464.434,148.236 L 464.325,147.745 L 464.138,147.263 L 463.881,146.781 L 463.562,146.29 L 463.165,145.816 L 462.699,145.341 L 462.162,144.898 L 461.555,144.454 L 460.886,144.003 L 460.154,143.591 L 459.368,143.17 L 458.505,142.766 L 457.594,142.392 L 456.63,142.027 L 455.603,141.669 L 454.537,141.342 L 453.416,141.039 L 452.257,140.743 L 451.043,140.471 L 449.806,140.222 L 448.522,139.996 L 447.207,139.786 L 445.877,139.599 L 444.508,139.443 L 443.115,139.311 L 441.714,139.202 L 440.29,139.117 L 438.859,139.047 L 437.419,139.008 L 435.98,139 L 435.98,139 L 434.533,139.008 L 433.093,139.047 L 431.662,139.117 L 430.238,139.202 L 428.837,139.311 L 427.445,139.443 L 426.083,139.599 L 424.745,139.786 L 423.43,139.996 L 422.146,140.222 L 420.909,140.471 L 419.703,140.743 L 418.544,141.039 L 417.423,141.342 L 416.35,141.669 L 415.323,142.027 L 414.366,142.392 L 413.447,142.766 L 412.592,143.17 L 411.798,143.591 L 411.067,144.003 L 410.397,144.454 L 409.791,144.898 L 409.254,145.341 L 408.787,145.816 L 408.39,146.29 L 408.071,146.781 L 407.814,147.263 L 407.628,147.745 L 407.526,148.236 L 407.487,148.741 L 407.487,148.741 L 407.526,149.231 L 407.628,149.729 L 407.814,150.204 L 408.071,150.702 L 408.39,151.177 L 408.787,151.659 L 409.254,152.126 L 409.791,152.577 L 410.397,153.028 L 411.067,153.464 L 411.798,153.892 L 412.592,154.304 L 413.447,154.701 L 414.366,155.082 L 415.323,155.456 L 416.35,155.798 L 417.423,156.133 L 418.544,156.444 L 419.703,156.732 L 420.909,157.004 L 422.146,157.261 L 423.43,157.479 L 424.745,157.697 L 426.083,157.876 L 427.445,158.031 L 428.837,158.171 L 430.238,158.273 L 431.662,158.366 L 433.093,158.428 L 434.533,158.467 L 435.98,158.483 L 435.98,158.483 L 437.419,158.467 L 438.859,158.428 L 440.29,158.366 L 441.714,158.273 L 443.115,158.171 L 444.508,158.031 L 445.877,157.876 L 447.207,157.697 L 448.522,157.479 L 449.806,157.261 L 451.043,157.004 L 452.257,156.732 L 453.416,156.444 L 454.537,156.133 L 455.603,155.798 L 456.63,155.456 L 457.594,155.082 L 458.505,154.701 L 459.368,154.304 L 460.154,153.892 L 460.886,153.464 L 461.555,153.028 L 462.162,152.577 L 462.699,152.126 L 463.165,151.659 L 463.562,151.177 L 463.881,150.702 L 464.138,150.204 L 464.325,149.729 L 464.434,149.231 L 464.473,148.741z"/>
    <path style="fill: none; fill-opacity:0; stroke-width: 0.02; stroke: #494936" d="M 464.138 148.586 L 464.099,148.088 L 463.998,147.613 L 463.819,147.138 L 463.57,146.656 L 463.235,146.166 L 462.831,145.707 L 462.387,145.263 L 461.843,144.804 L 461.244,144.369 L 460.582,143.925 L 459.851,143.521 L 459.065,143.108 L 458.217,142.711 L 457.322,142.346 L 456.342,141.98 L 455.323,141.645 L 454.257,141.319 L 453.152,141.007 L 452,140.72 L 450.802,140.455 L 449.557,140.214 L 448.289,139.988 L 446.982,139.786 L 445.659,139.599 L 444.305,139.443 L 442.913,139.311 L 441.52,139.202 L 440.104,139.117 L 439.629,139.093 L 431.989,139.093 L 431.514,139.117 L 430.113,139.202 L 428.713,139.311 L 427.328,139.443 L 425.966,139.599 L 424.636,139.786 L 423.337,139.988 L 422.068,140.214 L 420.823,140.455 L 419.625,140.72 L 418.481,141.007 L 417.361,141.319 L 416.287,141.645 L 415.276,141.98 L 414.311,142.346 L 413.416,142.711 L 412.56,143.108 L 411.767,143.521 L 411.051,143.925 L 410.39,144.369 L 409.775,144.804 L 409.246,145.263 L 408.787,145.707 L 408.39,146.166 L 408.063,146.656 L 407.806,147.138 L 407.628,147.613 L 407.526,148.088 L 407.487,148.586 L 407.487,148.586 L 407.526,149.06 L 407.628,149.55 L 407.806,150.033 L 408.063,150.507 L 408.39,150.982 L 408.787,151.449 L 409.246,151.9 L 409.775,152.359 L 410.39,152.795 L 411.051,153.231 L 411.767,153.651 L 412.56,154.048 L 413.416,154.437 L 414.311,154.826 L 415.276,155.184 L 416.287,155.518 L 417.361,155.837 L 418.481,156.148 L 419.625,156.429 L 420.823,156.701 L 422.068,156.958 L 423.337,157.16 L 424.636,157.378 L 425.966,157.549 L 427.328,157.712 L 428.713,157.852 L 430.113,157.961 L 431.514,158.047 L 432.946,158.101 L 434.377,158.132 L 435.809,158.156 L 435.809,158.156 L 437.24,158.132 L 438.688,158.101 L 440.104,158.047 L 441.52,157.961 L 442.913,157.852 L 444.305,157.712 L 445.659,157.549 L 446.982,157.378 L 448.289,157.16 L 449.557,156.958 L 450.802,156.701 L 452,156.429 L 453.152,156.148 L 454.257,155.837 L 455.323,155.518 L 456.342,155.184 L 457.322,154.826 L 458.217,154.437 L 459.065,154.048 L 459.851,153.651 L 460.582,153.231 L 461.244,152.795 L 461.843,152.359 L 462.387,151.9 L 462.831,151.449 L 463.235,150.982 L 463.57,150.507 L 463.819,150.033 L 463.998,149.55 L 464.099,149.06 L 464.138,148.586"/>
    <path style="fill: none; fill-opacity:0; stroke-width: 0.02; stroke: #000000" d="M 407.487 148.586 L 407.487,169.088"/>
    <path style="fill: none; fill-opacity:0; stroke-width: 0.02; stroke: #000000" d="M 464.138 148.586 L 464.138,169.088"/>
  </g>
  <text font-size="12.7998" style="fill: #000000;text-anchor:start;font-family:sans-serif;font-style:normal;font-weight:normal" x="405.98" y="190">
    <tspan x="405.98" y="190">Database</tspan>
  </text>
  <g>
    <rect style="fill: #ffffff" x="262.482" y="201.9" width="83" height="41"/>
    <rect style="fill: none; fill-opacity:0; stroke-width: 2; stroke: #000000" x="262.482" y="201.9" width="83" height="41"/>
  </g>
  <text font-size="5.64436" style="fill: #000000;text-anchor:start;font-family:sans-serif;font-style:normal;font-weight:normal" x="271.549" y="224.35">
    <tspan x="271.549" y="224.35">Data Viewer HTML App</tspan>
  </text>
  <g>
    <line style="fill: none; fill-opacity:0; stroke-width: 2; stroke: #000000" x1="216.98" y1="160" x2="252.245" y2="159.53"/>
    <polygon style="fill: #000000" points="259.744,159.43 249.812,164.563 252.245,159.53 249.678,154.564 "/>
    <polygon style="fill: none; fill-opacity:0; stroke-width: 2; stroke: #000000" points="259.744,159.43 249.812,164.563 252.245,159.53 249.678,154.564 "/>
  </g>
  <g>
    <line style="fill: none; fill-opacity:0; stroke-width: 2; stroke: #000000" x1="344.98" y1="159.4" x2="397.752" y2="159.006"/>
    <polygon style="fill: #000000" points="405.251,158.951 395.289,164.025 397.752,159.006 395.214,154.025 "/>
    <polygon style="fill: none; fill-opacity:0; stroke-width: 2; stroke: #000000" points="405.251,158.951 395.289,164.025 397.752,159.006 395.214,154.025 "/>
  </g>
  <g>
    <line style="fill: none; fill-opacity:0; stroke-width: 2; stroke: #000000" x1="345.482" y1="222.4" x2="400.684" y2="165.898"/>
    <polygon style="fill: #000000" points="405.925,160.533 402.513,171.18 400.684,165.898 395.36,164.192 "/>
    <polygon style="fill: none; fill-opacity:0; stroke-width: 2; stroke: #000000" points="405.925,160.533 402.513,171.18 400.684,165.898 395.36,164.192 "/>
  </g>
  <g>
    <line style="fill: none; fill-opacity:0; stroke-width: 2; stroke: #000000" x1="262.482" y1="222.4" x2="229.813" y2="221.321"/>
    <polygon style="fill: #000000" points="222.317,221.074 232.476,216.407 229.813,221.321 232.146,226.401 "/>
    <polygon style="fill: none; fill-opacity:0; stroke-width: 2; stroke: #000000" points="222.317,221.074 232.476,216.407 229.813,221.321 232.146,226.401 "/>
  </g>
</svg>
